<svg width="40" height="40" viewBox="0 0 40 40" fill="none" xmlns="http://www.w3.org/2000/svg">
<path d="M35.651 4.65967C35.709 5.28404 35.8077 5.84481 35.8077 6.39981C35.8193 14.2565 35.8135 22.1073 35.8077 29.964C35.8077 30.3687 35.7671 30.7791 35.6742 31.178C35.0822 33.7796 32.8882 35.5313 30.2125 35.5313C22.609 35.5313 15.0055 35.5371 7.40777 35.5313C6.49652 35.5313 5.58526 35.4503 4.73204 35.4157C4.71463 35.3983 4.76686 35.4619 4.82491 35.5197C5.89288 36.5083 7.05952 37.3755 8.34225 38.0692C9.14323 38.5028 9.96742 38.8092 10.9135 38.8092C18.6273 38.7977 26.3469 38.8092 34.0606 38.7977C34.4669 38.7977 34.8848 38.7861 35.2795 38.7052C37.5896 38.2311 39 36.4274 39 33.953C39 26.212 39 18.471 39 10.7241C39 10.3888 38.9768 10.042 38.8781 9.724C38.2803 7.74683 36.9976 6.19747 35.651 4.65967Z" fill="#C8FA5F" stroke="#C8FA5F" stroke-miterlimit="10"/>
<path d="M27.9372 17.8756C27.9314 19.4597 28.0011 21.0553 27.8966 22.6336C27.7805 24.4199 26.6777 26.5937 24.1006 27.0793C22.3362 27.4088 20.7922 26.9348 19.6256 25.5588C18.9697 24.7899 18.575 23.8765 18.5228 22.8128C18.3661 19.5984 18.5228 16.3899 18.488 13.1755C18.4764 12.1291 19.138 11.5452 20.1712 11.6319C20.711 11.6782 21.303 12.291 21.3088 12.8286C21.3088 13.6496 21.0941 20.8818 21.1637 22.4254C21.2334 23.969 21.9879 24.8246 23.2068 24.9056C24.2283 24.9576 25.0815 24.0095 25.1512 22.8821C25.1512 22.8821 25.3021 22.3792 25.1106 13.2622C25.1106 12.3257 25.5111 11.8227 26.4049 11.603C26.9215 11.4758 27.7225 12.0597 27.8734 12.6899C27.9256 12.9038 27.9372 13.1235 27.9372 13.3432C27.9372 14.8578 27.9256 16.3667 27.9198 17.8814C27.9256 17.8814 27.9314 17.8814 27.9372 17.8814V17.8756Z" fill="#C8FA5F"/>
<path d="M7.03636 17.6213C7.03636 16.0777 7.03636 14.5341 7.03636 12.9905C7.03636 12.3835 7.47168 11.8169 8.04629 11.6435C8.58608 11.4816 9.32321 11.7476 9.63084 12.2505C9.82818 12.5685 9.86881 12.9327 9.86881 13.2969C9.86881 16.2222 9.86881 19.1475 9.86881 22.0728C9.86881 23.1192 10.8903 24.2061 11.9351 24.235C13.2178 24.2639 14.5006 24.2465 15.7833 24.2581C16.9499 24.2697 17.6058 25.0848 17.2982 26.2353C17.1647 26.7382 16.6829 27.1429 16.1373 27.1487C14.5876 27.1603 13.0379 27.1834 11.494 27.1313C10.6814 27.1024 9.95007 26.7267 9.28839 26.2584C7.79671 25.2062 7.08279 23.7378 7.04216 21.9456C7.00734 20.5061 7.03636 19.0666 7.03636 17.6271V17.6213Z" fill="#C8FA5F"/>
<path d="M28.5815 9.72986C28.4132 9.84548 28.2217 9.82814 28.0824 9.68939C27.9431 9.55064 27.9837 9.31939 28.065 9.21533C28.4132 8.90315 32.1163 5.61942 32.1163 5.61942C32.1163 5.61942 30.5085 5.57896 29.8468 5.56161C29.574 5.55583 29.4289 5.44021 29.4231 5.2263C29.4115 4.96615 29.5624 4.8274 29.8759 4.83318C30.8103 4.85631 32.9463 4.90256 33.074 4.91412C33.3468 4.93724 33.4222 5.08177 33.4106 5.35927C33.3932 5.42865 33.3468 7.36535 33.3236 8.25565C33.3177 8.53893 33.1668 8.67768 32.8998 8.66034C32.6735 8.64299 32.5458 8.50424 32.5516 8.25565C32.5632 7.63128 32.6038 6.10505 32.6038 6.10505C32.6038 6.10505 28.6512 9.70095 28.5931 9.73564L28.5815 9.72986Z" fill="#C8FA5F"/>
<path d="M1.01161 17.9333C1.01161 14.1235 1.01161 10.3079 1.01161 6.49809C1.01161 3.78092 2.78189 1.63032 5.45762 1.11001C5.86972 1.02907 6.30504 1.02329 6.72874 1.02329C14.1581 1.02329 21.5933 1.0522 29.0227 1.00017C30.9961 0.988603 32.6445 1.58407 34.0955 2.87906C35.9297 4.50935 37.4968 6.34778 38.5299 8.59088C38.8492 9.28463 38.9943 10.0073 38.9943 10.782C38.9827 18.3785 38.9943 25.975 38.9885 33.5715C38.9885 36.1614 37.3053 38.2773 34.7804 38.867C34.409 38.9537 34.0201 38.9942 33.637 38.9942C25.9174 39 18.1978 38.9942 10.4724 39C9.7063 39 9.00979 38.763 8.34231 38.4277C5.81168 37.1674 3.73378 35.3694 2.06797 33.0858C1.30182 32.0337 1 30.8543 1 29.5766C1 25.6975 1 21.8183 1 17.9391L1.01161 17.9333Z" stroke="#C8FA5F" stroke-miterlimit="10"/>
</svg>
